<svg t="1671973450690" class="icon" viewBox="0 0 1024 1024" version="1.1" xmlns="http://www.w3.org/2000/svg" p-id="3753" width="200" height="200"><path d="M21.333333 938.666667m32 0l917.333334 0q32 0 32 32l0 0q0 32-32 32l-917.333334 0q-32 0-32-32l0 0q0-32 32-32Z" fill="#BED5FF" p-id="3754"></path><path d="M512 362.666667H192l-128 128 128 128h320z" fill="#39EAC2" p-id="3755"></path><path d="M480 64h64v885.333333a32 32 0 0 1-64 0V64z" fill="#2674FD" p-id="3756"></path><path d="M845.248 32H480v320h365.248l160-160-160-160z m-26.496 64l96 96-96.021333 96H544v-192h274.752z" fill="#2674FD" p-id="3757"></path></svg>