<svg t="1669904344543" class="icon" viewBox="0 0 1024 1024" version="1.1" xmlns="http://www.w3.org/2000/svg" p-id="1500" width="200" height="200"><path d="M465.454545 884.363636C223.809164 884.363636 27.927273 688.481745 27.927273 446.836364S223.809164 9.309091 465.454545 9.309091 902.981818 205.190982 902.981818 446.836364 707.099927 884.363636 465.454545 884.363636z m0-55.854545c210.795055 0 381.672727-170.877673 381.672728-381.672727S676.2496 65.163636 465.454545 65.163636 83.781818 236.041309 83.781818 446.836364 254.659491 828.509091 465.454545 828.509091z" fill="#0069F6" p-id="1501"></path><path d="M791.078956 839.883175m19.747564-19.747564l0 0q19.747564-19.747564 39.495128 0l144.815469 144.815469q19.747564 19.747564 0 39.495127l0 0q-19.747564 19.747564-39.495128 0l-144.815469-144.815468q-19.747564-19.747564 0-39.495128Z" fill="#5ED7BC" p-id="1502"></path></svg>