<svg xmlns="http://www.w3.org/2000/svg" xmlns:xlink="http://www.w3.org/1999/xlink" fill="none" version="1.1" width="30" height="30" viewBox="0 0 30 30"><defs><clipPath id="master_svg0_47_12642"><rect x="0" y="0" width="30" height="30" rx="0"/></clipPath></defs><g clip-path="url(#master_svg0_47_12642)"><g><path d="M6.25,18.75L6.25,21.25C6.24958,22.5583,7.2579,23.6456,8.5625,23.7438L8.75,23.75L12.5,23.75L12.5,26.25L8.75,26.25C5.98858,26.25,3.75,24.0114,3.75,21.25L3.75,18.75L6.25,18.75ZM22.5,12.5L28,26.25L25.3062,26.25L23.805,22.5L18.6925,22.5L17.1937,26.25L14.5012,26.25L20,12.5L22.5,12.5ZM21.25,16.106299999999997L19.6912,20L22.8063,20L21.25,16.106299999999997ZM10,2.5L10,5L15,5L15,13.75L10,13.75L10,17.5L7.5,17.5L7.5,13.75L2.5,13.75L2.5,5L7.5,5L7.5,2.5L10,2.5ZM21.25,3.75C24.0114,3.75,26.25,5.98858,26.25,8.75L26.25,11.25L23.75,11.25L23.75,8.75C23.75,7.36929,22.6307,6.25,21.25,6.25L17.5,6.25L17.5,3.75L21.25,3.75ZM7.5,7.5L5,7.5L5,11.25L7.5,11.25L7.5,7.5ZM12.5,7.5L10,7.5L10,11.25L12.5,11.25L12.5,7.5Z" fill="#000000" fill-opacity="1"/></g></g></svg>